<svg xmlns="http://www.w3.org/2000/svg" xmlns:xlink="http://www.w3.org/1999/xlink" width="174" zoomAndPan="magnify" viewBox="0 0 130.5 55.5" height="74" preserveAspectRatio="xMidYMid meet" version="1.0"><defs><g/></defs><g fill="#02273b" fill-opacity="1"><g transform="translate(15.566864, 22.536363)"><g><path d="M 2.578125 -10.984375 C 3.878906 -12.222656 5.484375 -12.84375 7.390625 -12.84375 C 9.304688 -12.84375 10.914062 -12.222656 12.21875 -10.984375 C 13.519531 -9.753906 14.171875 -8.222656 14.171875 -6.390625 C 14.171875 -4.566406 13.519531 -3.03125 12.21875 -1.78125 C 10.914062 -0.53125 9.304688 0.09375 7.390625 0.09375 C 5.484375 0.09375 3.878906 -0.53125 2.578125 -1.78125 C 1.273438 -3.03125 0.625 -4.566406 0.625 -6.390625 C 0.625 -8.222656 1.273438 -9.753906 2.578125 -10.984375 Z M 7.421875 -10.90625 C 6.148438 -10.90625 5.0625 -10.46875 4.15625 -9.59375 C 3.257812 -8.726562 2.8125 -7.660156 2.8125 -6.390625 C 2.8125 -5.128906 3.265625 -4.054688 4.171875 -3.171875 C 5.078125 -2.285156 6.15625 -1.84375 7.40625 -1.84375 C 8.664062 -1.84375 9.738281 -2.285156 10.625 -3.171875 C 11.519531 -4.054688 11.96875 -5.128906 11.96875 -6.390625 C 11.96875 -7.660156 11.519531 -8.726562 10.625 -9.59375 C 9.738281 -10.46875 8.671875 -10.90625 7.421875 -10.90625 Z M 7.421875 -10.90625 "/></g></g></g><g fill="#02273b" fill-opacity="1"><g transform="translate(31.845047, 22.536363)"><g><path d="M 7.140625 -9.796875 C 8.515625 -9.796875 9.628906 -9.332031 10.484375 -8.40625 C 11.347656 -7.488281 11.78125 -6.296875 11.78125 -4.828125 C 11.78125 -3.359375 11.359375 -2.171875 10.515625 -1.265625 C 9.679688 -0.367188 8.566406 0.078125 7.171875 0.078125 C 5.617188 0.078125 4.476562 -0.507812 3.75 -1.6875 L 3.75 3.546875 L 1.640625 3.546875 L 1.640625 -9.71875 L 3.75 -9.71875 L 3.75 -8.03125 C 4.476562 -9.207031 5.609375 -9.796875 7.140625 -9.796875 Z M 4.578125 -2.59375 C 5.128906 -2.007812 5.835938 -1.71875 6.703125 -1.71875 C 7.566406 -1.71875 8.273438 -2.007812 8.828125 -2.59375 C 9.378906 -3.1875 9.65625 -3.953125 9.65625 -4.890625 C 9.65625 -5.804688 9.378906 -6.554688 8.828125 -7.140625 C 8.273438 -7.734375 7.566406 -8.03125 6.703125 -8.03125 C 5.835938 -8.03125 5.128906 -7.734375 4.578125 -7.140625 C 4.023438 -6.554688 3.75 -5.804688 3.75 -4.890625 C 3.75 -3.953125 4.023438 -3.1875 4.578125 -2.59375 Z M 4.578125 -2.59375 "/></g></g></g><g fill="#02273b" fill-opacity="1"><g transform="translate(45.748255, 22.536363)"><g><path d="M 6.515625 -2.234375 L 7.046875 -0.625 C 6.242188 -0.144531 5.445312 0.09375 4.65625 0.09375 C 3.863281 0.09375 3.210938 -0.140625 2.703125 -0.609375 C 2.191406 -1.085938 1.9375 -1.796875 1.9375 -2.734375 L 1.9375 -7.78125 L 0.5625 -7.78125 L 0.5625 -9.359375 L 1.9375 -9.359375 L 1.9375 -12.015625 L 4.015625 -12.015625 L 4.015625 -9.359375 L 6.890625 -9.359375 L 6.890625 -7.78125 L 4.015625 -7.78125 L 4.015625 -3.125 C 4.015625 -2.632812 4.097656 -2.289062 4.265625 -2.09375 C 4.441406 -1.90625 4.707031 -1.8125 5.0625 -1.8125 C 5.445312 -1.8125 5.929688 -1.953125 6.515625 -2.234375 Z M 6.515625 -2.234375 "/></g></g></g><g fill="#02273b" fill-opacity="1"><g transform="translate(54.664027, 22.536363)"><g><path d="M 1.71875 -13.40625 C 1.945312 -13.644531 2.238281 -13.765625 2.59375 -13.765625 C 2.945312 -13.765625 3.238281 -13.644531 3.46875 -13.40625 C 3.695312 -13.175781 3.8125 -12.875 3.8125 -12.5 C 3.8125 -12.132812 3.695312 -11.832031 3.46875 -11.59375 C 3.238281 -11.351562 2.945312 -11.234375 2.59375 -11.234375 C 2.238281 -11.234375 1.945312 -11.351562 1.71875 -11.59375 C 1.488281 -11.832031 1.375 -12.132812 1.375 -12.5 C 1.375 -12.875 1.488281 -13.175781 1.71875 -13.40625 Z M 3.640625 0 L 1.546875 0 L 1.546875 -9.71875 L 3.640625 -9.71875 Z M 3.640625 0 "/></g></g></g><g fill="#02273b" fill-opacity="1"><g transform="translate(61.33272, 22.536363)"><g><path d="M 14.234375 -9.796875 C 15.335938 -9.796875 16.207031 -9.457031 16.84375 -8.78125 C 17.476562 -8.113281 17.796875 -7.203125 17.796875 -6.046875 L 17.796875 0 L 15.6875 0 L 15.6875 -5.46875 C 15.6875 -6.207031 15.484375 -6.785156 15.078125 -7.203125 C 14.671875 -7.628906 14.109375 -7.84375 13.390625 -7.84375 C 12.578125 -7.8125 11.925781 -7.507812 11.4375 -6.9375 C 10.957031 -6.375 10.71875 -5.660156 10.71875 -4.796875 L 10.71875 0 L 8.625 0 L 8.625 -5.46875 C 8.625 -6.207031 8.414062 -6.785156 8 -7.203125 C 7.59375 -7.628906 7.039062 -7.84375 6.34375 -7.84375 C 5.507812 -7.8125 4.847656 -7.507812 4.359375 -6.9375 C 3.878906 -6.375 3.640625 -5.660156 3.640625 -4.796875 L 3.640625 0 L 1.546875 0 L 1.546875 -9.71875 L 3.640625 -9.71875 L 3.640625 -7.84375 C 4.285156 -9.144531 5.457031 -9.796875 7.15625 -9.796875 C 8.019531 -9.796875 8.738281 -9.585938 9.3125 -9.171875 C 9.894531 -8.765625 10.304688 -8.191406 10.546875 -7.453125 C 11.140625 -9.015625 12.367188 -9.796875 14.234375 -9.796875 Z M 14.234375 -9.796875 "/></g></g></g><g fill="#02273b" fill-opacity="1"><g transform="translate(81.867569, 22.536363)"><g><path d="M 10.375 -9.71875 L 10.375 0 L 8.28125 0 L 8.28125 -1.90625 C 7.644531 -0.613281 6.484375 0.046875 4.796875 0.078125 C 3.691406 0.078125 2.820312 -0.253906 2.1875 -0.921875 C 1.550781 -1.597656 1.234375 -2.515625 1.234375 -3.671875 L 1.234375 -9.71875 L 3.34375 -9.71875 L 3.34375 -4.25 C 3.34375 -3.519531 3.539062 -2.945312 3.9375 -2.53125 C 4.34375 -2.113281 4.898438 -1.90625 5.609375 -1.90625 C 6.421875 -1.914062 7.066406 -2.203125 7.546875 -2.765625 C 8.035156 -3.328125 8.28125 -4.050781 8.28125 -4.9375 L 8.28125 -9.71875 Z M 10.375 -9.71875 "/></g></g></g><g fill="#02273b" fill-opacity="1"><g transform="translate(95.27752, 22.536363)"><g><path d="M 14.234375 -9.796875 C 15.335938 -9.796875 16.207031 -9.457031 16.84375 -8.78125 C 17.476562 -8.113281 17.796875 -7.203125 17.796875 -6.046875 L 17.796875 0 L 15.6875 0 L 15.6875 -5.46875 C 15.6875 -6.207031 15.484375 -6.785156 15.078125 -7.203125 C 14.671875 -7.628906 14.109375 -7.84375 13.390625 -7.84375 C 12.578125 -7.8125 11.925781 -7.507812 11.4375 -6.9375 C 10.957031 -6.375 10.71875 -5.660156 10.71875 -4.796875 L 10.71875 0 L 8.625 0 L 8.625 -5.46875 C 8.625 -6.207031 8.414062 -6.785156 8 -7.203125 C 7.59375 -7.628906 7.039062 -7.84375 6.34375 -7.84375 C 5.507812 -7.8125 4.847656 -7.507812 4.359375 -6.9375 C 3.878906 -6.375 3.640625 -5.660156 3.640625 -4.796875 L 3.640625 0 L 1.546875 0 L 1.546875 -9.71875 L 3.640625 -9.71875 L 3.640625 -7.84375 C 4.285156 -9.144531 5.457031 -9.796875 7.15625 -9.796875 C 8.019531 -9.796875 8.738281 -9.585938 9.3125 -9.171875 C 9.894531 -8.765625 10.304688 -8.191406 10.546875 -7.453125 C 11.140625 -9.015625 12.367188 -9.796875 14.234375 -9.796875 Z M 14.234375 -9.796875 "/></g></g></g><g fill="#000000" fill-opacity="1"><g transform="translate(14.206956, 50.350146)"><g><path d="M 7.53125 0 L 6.109375 0 L 6.109375 -4.078125 L 4.59375 -0.625 L 3.5625 -0.625 L 2.046875 -4.078125 L 2.046875 0 L 0.625 0 L 0.625 -6.28125 L 2.375 -6.28125 L 4.078125 -2.546875 L 5.78125 -6.28125 L 7.53125 -6.28125 Z M 7.53125 0 "/></g></g></g><g fill="#000000" fill-opacity="1"><g transform="translate(24.726995, 50.350146)"><g><path d="M 2.796875 -4.90625 C 3.453125 -4.90625 3.960938 -4.75 4.328125 -4.4375 C 4.703125 -4.132812 4.890625 -3.707031 4.890625 -3.15625 L 4.890625 0 L 3.375 0 L 3.375 -0.5625 C 3.0625 -0.132812 2.570312 0.078125 1.90625 0.078125 C 1.394531 0.078125 0.988281 -0.0625 0.6875 -0.34375 C 0.382812 -0.625 0.234375 -0.988281 0.234375 -1.4375 C 0.234375 -1.90625 0.394531 -2.265625 0.71875 -2.515625 C 1.039062 -2.765625 1.5 -2.894531 2.09375 -2.90625 L 3.375 -2.90625 L 3.375 -2.984375 C 3.375 -3.222656 3.289062 -3.40625 3.125 -3.53125 C 2.96875 -3.664062 2.738281 -3.734375 2.4375 -3.734375 C 2 -3.734375 1.515625 -3.601562 0.984375 -3.34375 L 0.546875 -4.359375 C 1.328125 -4.722656 2.078125 -4.90625 2.796875 -4.90625 Z M 2.375 -0.984375 C 2.625 -0.984375 2.835938 -1.039062 3.015625 -1.15625 C 3.203125 -1.28125 3.320312 -1.441406 3.375 -1.640625 L 3.375 -2.078125 L 2.390625 -2.078125 C 1.921875 -2.078125 1.6875 -1.898438 1.6875 -1.546875 C 1.6875 -1.367188 1.742188 -1.226562 1.859375 -1.125 C 1.984375 -1.03125 2.15625 -0.984375 2.375 -0.984375 Z M 2.375 -0.984375 "/></g></g></g><g fill="#000000" fill-opacity="1"><g transform="translate(32.467539, 50.350146)"><g><path d="M 2.21875 0 L 0.65625 0 L 0.65625 -6.65625 L 2.21875 -6.65625 Z M 2.21875 0 "/></g></g></g><g fill="#000000" fill-opacity="1"><g transform="translate(37.706534, 50.350146)"><g><path d="M 0.8125 -6.8125 C 0.96875 -6.96875 1.164062 -7.046875 1.40625 -7.046875 C 1.644531 -7.046875 1.835938 -6.96875 1.984375 -6.8125 C 2.140625 -6.65625 2.21875 -6.457031 2.21875 -6.21875 C 2.21875 -5.976562 2.140625 -5.78125 1.984375 -5.625 C 1.835938 -5.476562 1.644531 -5.40625 1.40625 -5.40625 C 1.164062 -5.40625 0.96875 -5.476562 0.8125 -5.625 C 0.65625 -5.78125 0.578125 -5.976562 0.578125 -6.21875 C 0.578125 -6.457031 0.65625 -6.65625 0.8125 -6.8125 Z M 2.15625 0 L 0.625 0 L 0.625 -4.828125 L 2.15625 -4.828125 Z M 2.15625 0 "/></g></g></g><g fill="#000000" fill-opacity="1"><g transform="translate(42.85586, 50.350146)"><g/></g></g><g fill="#000000" fill-opacity="1"><g transform="translate(47.296859, 50.350146)"><g><path d="M 7.53125 0 L 6.109375 0 L 6.109375 -4.078125 L 4.59375 -0.625 L 3.5625 -0.625 L 2.046875 -4.078125 L 2.046875 0 L 0.625 0 L 0.625 -6.28125 L 2.375 -6.28125 L 4.078125 -2.546875 L 5.78125 -6.28125 L 7.53125 -6.28125 Z M 7.53125 0 "/></g></g></g><g fill="#000000" fill-opacity="1"><g transform="translate(57.816897, 50.350146)"><g><path d="M 2.5625 -5.6875 C 2.4375 -5.5625 2.269531 -5.5 2.0625 -5.5 C 1.863281 -5.5 1.695312 -5.5625 1.5625 -5.6875 C 1.4375 -5.820312 1.375 -5.988281 1.375 -6.1875 C 1.375 -6.394531 1.4375 -6.5625 1.5625 -6.6875 C 1.695312 -6.820312 1.863281 -6.890625 2.0625 -6.890625 C 2.269531 -6.890625 2.4375 -6.820312 2.5625 -6.6875 C 2.695312 -6.5625 2.765625 -6.394531 2.765625 -6.1875 C 2.765625 -5.988281 2.695312 -5.820312 2.5625 -5.6875 Z M 4.296875 -5.6875 C 4.171875 -5.5625 4.003906 -5.5 3.796875 -5.5 C 3.597656 -5.5 3.429688 -5.5625 3.296875 -5.6875 C 3.171875 -5.820312 3.109375 -5.988281 3.109375 -6.1875 C 3.109375 -6.394531 3.171875 -6.5625 3.296875 -6.6875 C 3.429688 -6.820312 3.597656 -6.890625 3.796875 -6.890625 C 4.003906 -6.890625 4.171875 -6.820312 4.296875 -6.6875 C 4.429688 -6.5625 4.5 -6.394531 4.5 -6.1875 C 4.5 -5.988281 4.429688 -5.820312 4.296875 -5.6875 Z M 5.328125 -4.828125 L 5.328125 0 L 3.78125 0 L 3.78125 -0.796875 C 3.445312 -0.222656 2.921875 0.0625 2.203125 0.0625 C 1.679688 0.0625 1.257812 -0.101562 0.9375 -0.4375 C 0.625 -0.769531 0.46875 -1.21875 0.46875 -1.78125 L 0.46875 -4.828125 L 2.03125 -4.828125 L 2.03125 -2.21875 C 2.03125 -1.9375 2.101562 -1.710938 2.25 -1.546875 C 2.394531 -1.378906 2.585938 -1.296875 2.828125 -1.296875 C 3.128906 -1.304688 3.363281 -1.414062 3.53125 -1.625 C 3.695312 -1.84375 3.78125 -2.117188 3.78125 -2.453125 L 3.78125 -4.828125 Z M 5.328125 -4.828125 "/></g></g></g><g fill="#000000" fill-opacity="1"><g transform="translate(66.122301, 50.350146)"><g><path d="M 1.8125 -3.5 C 1.8125 -3.382812 1.894531 -3.285156 2.0625 -3.203125 C 2.238281 -3.117188 2.453125 -3.046875 2.703125 -2.984375 C 2.953125 -2.921875 3.203125 -2.835938 3.453125 -2.734375 C 3.703125 -2.640625 3.910156 -2.484375 4.078125 -2.265625 C 4.253906 -2.054688 4.34375 -1.796875 4.34375 -1.484375 C 4.34375 -1.078125 4.210938 -0.742188 3.953125 -0.484375 C 3.691406 -0.234375 3.335938 -0.0664062 2.890625 0.015625 L 2.65625 0.453125 C 2.84375 0.503906 2.992188 0.59375 3.109375 0.71875 C 3.222656 0.851562 3.28125 1.007812 3.28125 1.1875 C 3.28125 1.46875 3.171875 1.691406 2.953125 1.859375 C 2.742188 2.023438 2.476562 2.109375 2.15625 2.109375 C 1.863281 2.109375 1.578125 2.015625 1.296875 1.828125 L 1.59375 1.1875 C 1.71875 1.3125 1.863281 1.375 2.03125 1.375 C 2.144531 1.375 2.234375 1.34375 2.296875 1.28125 C 2.367188 1.21875 2.40625 1.132812 2.40625 1.03125 C 2.40625 0.9375 2.367188 0.859375 2.296875 0.796875 C 2.222656 0.742188 2.117188 0.71875 1.984375 0.71875 C 1.921875 0.71875 1.816406 0.726562 1.671875 0.75 L 2.015625 0.046875 C 1.273438 -0.00390625 0.648438 -0.226562 0.140625 -0.625 L 0.640625 -1.609375 C 1.203125 -1.203125 1.769531 -1 2.34375 -1 C 2.695312 -1 2.875 -1.113281 2.875 -1.34375 C 2.875 -1.46875 2.789062 -1.570312 2.625 -1.65625 C 2.457031 -1.738281 2.25 -1.8125 2 -1.875 C 1.75 -1.9375 1.5 -2.015625 1.25 -2.109375 C 1.007812 -2.210938 0.804688 -2.367188 0.640625 -2.578125 C 0.472656 -2.785156 0.390625 -3.050781 0.390625 -3.375 C 0.390625 -3.851562 0.570312 -4.226562 0.9375 -4.5 C 1.300781 -4.769531 1.769531 -4.90625 2.34375 -4.90625 C 3.0625 -4.90625 3.726562 -4.722656 4.34375 -4.359375 L 3.8125 -3.359375 C 3.21875 -3.679688 2.707031 -3.84375 2.28125 -3.84375 C 1.96875 -3.84375 1.8125 -3.726562 1.8125 -3.5 Z M 1.8125 -3.5 "/></g></g></g><g fill="#000000" fill-opacity="1"><g transform="translate(73.082792, 50.350146)"><g><path d="M 2.796875 -4.90625 C 3.453125 -4.90625 3.960938 -4.75 4.328125 -4.4375 C 4.703125 -4.132812 4.890625 -3.707031 4.890625 -3.15625 L 4.890625 0 L 3.375 0 L 3.375 -0.5625 C 3.0625 -0.132812 2.570312 0.078125 1.90625 0.078125 C 1.394531 0.078125 0.988281 -0.0625 0.6875 -0.34375 C 0.382812 -0.625 0.234375 -0.988281 0.234375 -1.4375 C 0.234375 -1.90625 0.394531 -2.265625 0.71875 -2.515625 C 1.039062 -2.765625 1.5 -2.894531 2.09375 -2.90625 L 3.375 -2.90625 L 3.375 -2.984375 C 3.375 -3.222656 3.289062 -3.40625 3.125 -3.53125 C 2.96875 -3.664062 2.738281 -3.734375 2.4375 -3.734375 C 2 -3.734375 1.515625 -3.601562 0.984375 -3.34375 L 0.546875 -4.359375 C 1.328125 -4.722656 2.078125 -4.90625 2.796875 -4.90625 Z M 2.375 -0.984375 C 2.625 -0.984375 2.835938 -1.039062 3.015625 -1.15625 C 3.203125 -1.28125 3.320312 -1.441406 3.375 -1.640625 L 3.375 -2.078125 L 2.390625 -2.078125 C 1.921875 -2.078125 1.6875 -1.898438 1.6875 -1.546875 C 1.6875 -1.367188 1.742188 -1.226562 1.859375 -1.125 C 1.984375 -1.03125 2.15625 -0.984375 2.375 -0.984375 Z M 2.375 -0.984375 "/></g></g></g><g fill="#000000" fill-opacity="1"><g transform="translate(80.823335, 50.350146)"><g><path d="M 3.359375 0 L 1.78125 0 L -0.046875 -4.828125 L 1.546875 -4.828125 L 2.59375 -1.421875 L 3.640625 -4.828125 L 5.1875 -4.828125 Z M 3.359375 0 "/></g></g></g><g fill="#000000" fill-opacity="1"><g transform="translate(88.303854, 50.350146)"><g><path d="M 0.8125 -6.8125 C 0.96875 -6.96875 1.164062 -7.046875 1.40625 -7.046875 C 1.644531 -7.046875 1.835938 -6.96875 1.984375 -6.8125 C 2.140625 -6.65625 2.21875 -6.457031 2.21875 -6.21875 C 2.21875 -5.976562 2.140625 -5.78125 1.984375 -5.625 C 1.835938 -5.476562 1.644531 -5.40625 1.40625 -5.40625 C 1.164062 -5.40625 0.96875 -5.476562 0.8125 -5.625 C 0.65625 -5.78125 0.578125 -5.976562 0.578125 -6.21875 C 0.578125 -6.457031 0.65625 -6.65625 0.8125 -6.8125 Z M 2.15625 0 L 0.625 0 L 0.625 -4.828125 L 2.15625 -4.828125 Z M 2.15625 0 "/></g></g></g><g fill="#000000" fill-opacity="1"><g transform="translate(93.453178, 50.350146)"><g><path d="M 2.171875 -4.828125 L 2.171875 -4.015625 C 2.515625 -4.597656 3.035156 -4.894531 3.734375 -4.90625 L 3.734375 -3.5 C 3.296875 -3.539062 2.9375 -3.46875 2.65625 -3.28125 C 2.375 -3.09375 2.210938 -2.828125 2.171875 -2.484375 L 2.171875 0 L 0.625 0 L 0.625 -4.828125 Z M 2.171875 -4.828125 "/></g></g></g><g fill="#000000" fill-opacity="1"><g transform="translate(99.642578, 50.350146)"><g><path d="M 2.21875 0 L 0.65625 0 L 0.65625 -6.65625 L 2.21875 -6.65625 Z M 2.21875 0 "/></g></g></g><g fill="#000000" fill-opacity="1"><g transform="translate(104.881572, 50.350146)"><g><path d="M 0.8125 -6.8125 C 0.96875 -6.96875 1.164062 -7.046875 1.40625 -7.046875 C 1.644531 -7.046875 1.835938 -6.96875 1.984375 -6.8125 C 2.140625 -6.65625 2.21875 -6.457031 2.21875 -6.21875 C 2.21875 -5.976562 2.140625 -5.78125 1.984375 -5.625 C 1.835938 -5.476562 1.644531 -5.40625 1.40625 -5.40625 C 1.164062 -5.40625 0.96875 -5.476562 0.8125 -5.625 C 0.65625 -5.78125 0.578125 -5.976562 0.578125 -6.21875 C 0.578125 -6.457031 0.65625 -6.65625 0.8125 -6.8125 Z M 2.15625 0 L 0.625 0 L 0.625 -4.828125 L 2.15625 -4.828125 Z M 2.15625 0 "/></g></g></g><g fill="#000000" fill-opacity="1"><g transform="translate(110.030902, 50.350146)"><g><path d="M 2.734375 -1.859375 L 2.21875 -1.3125 L 2.21875 0 L 0.65625 0 L 0.65625 -6.65625 L 2.21875 -6.65625 L 2.21875 -3.140625 L 3.8125 -4.828125 L 5.5625 -4.828125 L 3.796875 -2.984375 L 5.625 0 L 3.78125 0 Z M 2.734375 -1.859375 "/></g></g></g><path stroke-linecap="round" transform="matrix(0.743304, 0.000000000000000321, -0.000000000000000321, 0.743304, 16.104416, 33.408522)" fill="none" stroke-linejoin="miter" d="M 0.999914 1.000697 L 130.452623 1.000697 " stroke="#f0535a" stroke-width="2" stroke-opacity="1" stroke-miterlimit="4"/></svg>